<svg height="496pt" viewBox="0 0 496 496" width="496pt" xmlns="http://www.w3.org/2000/svg"><path d="m88 8-80 80v400h384v-480zm0 0" fill="#e6e9ed"/><path d="m88 8v80h-80zm0 0" fill="#fcd770"/><path d="m360 72v64c0 17.679688-14.320312 32-32 32h-176c-17.679688 0-32-14.320312-32-32v-64c0-17.679688 14.320312-32 32-32h176c17.679688 0 32 14.320312 32 32zm0 0" fill="#ffeaa7"/><g fill="#b4dd7f"><path d="m224 88h32v32h-32zm0 0"/><path d="m296 88h32v32h-32zm0 0"/><path d="m152 88h32v32h-32zm0 0"/><path d="m127.441406 380.640625c5.4375 7.757813 8.558594 17.199219 8.558594 27.359375 0 26.480469-21.519531 48-48 48s-48-21.519531-48-48 21.519531-48 48-48c16.320312 0 30.800781 8.160156 39.441406 20.640625zm0 0"/><path d="m127.441406 236.640625c5.4375 7.757813 8.558594 17.199219 8.558594 27.359375 0 26.480469-21.519531 48-48 48s-48-21.519531-48-48 21.519531-48 48-48c16.320312 0 30.800781 8.160156 39.441406 20.640625zm0 0"/><path d="m461.519531 314.160156-125.519531 125.519532-20-20 125.519531-125.519532zm0 0"/></g><path d="m441.519531 294.160156-125.519531 125.519532-20-20 96-96v-.078126l29.519531-29.441406zm0 0" fill="#ff826e"/><path d="m336 439.679688-56 16.320312 16-56.320312zm0 0" fill="#f0d0b4"/><path d="m488 275.921875c0 7.511719-2.960938 14.71875-8.320312 20l-18.160157 18.230469-40-40 18.160157-18.230469c5.359374-5.28125 12.558593-8.242187 20-8.242187 7.839843 0 14.878906 3.199218 20 8.242187 5.121093 5.117187 8.320312 12.238281 8.320312 20zm0 0" fill="#ffeaa7"/><path d="m496 275.953125c0-20.007813-16.273438-36.289063-36.28125-36.289063-9.6875 0-18.796875 3.777344-25.65625 10.632813l-34.0625 34.0625v-284.359375h-315.3125l-84.6875 84.6875v411.3125h400v-109.015625l85.375-85.375c6.847656-6.847656 10.625-15.960937 10.625-25.65625zm-196.023438 139 20.816407 20.816406-29.136719 8.503907zm36.023438 13.390625-8.679688-8.679688 114.214844-114.222656 8.6875 8.6875zm-20-19.992188-8.6875-8.6875 114.230469-114.222656 8.6875 8.6875zm-236-381.039062v52.6875h-52.6875zm304 452.6875h-368v-384h80v-80h288v284.359375l-95.128906 95.121094-20.519532 72.253906 71.855469-20.957031 43.792969-43.792969zm90.0625-189.703125-12.519531 12.519531-28.6875-28.6875 12.519531-12.519531c3.832031-3.832031 8.929688-5.945313 14.34375-5.945313 11.175781 0 20.28125 9.105469 20.28125 20.289063 0 5.421875-2.113281 10.519531-5.9375 14.34375zm0 0"/><path d="m162.078125 330.617188-34.429687 37.878906c-10.152344-10.183594-24.175782-16.496094-39.648438-16.496094-30.871094 0-56 25.128906-56 56s25.128906 56 56 56 56-25.128906 56-56c0-9.542969-2.40625-18.527344-6.640625-26.398438l36.5625-40.21875zm-34.078125 77.382812c0 22.054688-17.945312 40-40 40s-40-17.945312-40-40 17.945312-40 40-40c11.335938 0 21.535156 4.792969 28.824219 12.398438l-30.113281 33.128906-18.269532-12.175782-8.875 13.3125 29.730469 19.824219 36.238281-39.863281c1.496094 4.199219 2.464844 8.65625 2.464844 13.375zm0 0"/><path d="m127.648438 224.496094c-10.152344-10.183594-24.175782-16.496094-39.648438-16.496094-30.871094 0-56 25.128906-56 56s25.128906 56 56 56 56-25.128906 56-56c0-9.542969-2.40625-18.527344-6.640625-26.398438l36.5625-40.21875-11.84375-10.765624zm.351562 39.503906c0 22.054688-17.945312 40-40 40s-40-17.945312-40-40 17.945312-40 40-40c11.335938 0 21.535156 4.792969 28.824219 12.398438l-30.113281 33.128906-18.269532-12.175782-8.875 13.3125 29.730469 19.824219 36.238281-39.863281c1.496094 4.199219 2.464844 8.65625 2.464844 13.375zm0 0"/><path d="m352 256h16v16h-16zm0 0"/><path d="m176 256h160v16h-160zm0 0"/><path d="m176 224h192v16h-192zm0 0"/><path d="m176 288h192v16h-192zm0 0"/><path d="m176 400h88v16h-88zm0 0"/><path d="m176 432h88v16h-88zm0 0"/><path d="m176 368h88v16h-88zm0 0"/><path d="m152 176h176c22.054688 0 40-17.945312 40-40v-64c0-22.054688-17.945312-40-40-40h-176c-22.054688 0-40 17.945312-40 40v64c0 22.054688 17.945312 40 40 40zm-24-104c0-13.230469 10.769531-24 24-24h176c13.230469 0 24 10.769531 24 24v64c0 13.230469-10.769531 24-24 24h-176c-13.230469 0-24-10.769531-24-24zm0 0"/><path d="m336 80h-48v48h48zm-16 32h-16v-16h16zm0 0"/><path d="m264 80h-48v48h48zm-16 32h-16v-16h16zm0 0"/><path d="m192 80h-48v48h48zm-16 32h-16v-16h16zm0 0"/></svg>